<svg xmlns="http://www.w3.org/2000/svg" xmlns:xlink="http://www.w3.org/1999/xlink">
	<symbol id="back" viewBox="0 0 1024 1024">
		 <path fill="currentColor" d="M532.526499 904.817574L139.506311 511.797385 532.526499 118.777197c12.258185-12.258185 12.432147-32.892131-0.187265-45.51052-12.707416-12.707416-32.995485-12.703323-45.511543-0.187265L75.166957 484.739123c-7.120165 7.120165-10.163477 17.065677-8.990768 26.624381-1.500167 9.755178 1.5104 20.010753 8.990768 27.491121l411.660734 411.660734c12.258185 12.258185 32.892131 12.432147 45.511543-0.187265 12.707416-12.707416 12.7023-32.995485 0.187265-45.51052z"></path>
	</symbol>
	<symbol id="user" viewBox="0 0 1024 1024">
		<path fill="currentColor" d="M793.6 316.991454C793.6 153.703982 661.792629 21.333333 499.2 21.333333 336.607371 21.333333 204.8 153.703982 204.8 316.991454 204.8 480.278923 336.607371 612.649572 499.2 612.649572 661.792629 612.649572 793.6 480.278923 793.6 316.991454ZM256 316.991454C256 182.101803 364.88435 72.752137 499.2 72.752137 633.51565 72.752137 742.4 182.101803 742.4 316.991454 742.4 451.881103 633.51565 561.230769 499.2 561.230769 364.88435 561.230769 256 451.881103 256 316.991454ZM0 998.290598 0 1024 25.6 1024 486.4 1024 998.4 1024 1024 1024 1024 998.290598C1024 767.462671 787.090923 561.230769 512 561.230769 495.448045 561.230769 478.989086 561.900892 462.660538 563.232578 448.568439 564.381869 485.255599 576.786276 486.4 590.938596 501.350035 589.719337 496.831226 612.649572 512 612.649572 760.310844 612.649572 972.8 797.623669 972.8 998.290598L998.4 972.581197 486.4 972.581197 25.6 972.581197 51.2 998.290598C51.2 861.757427 137.013906 736.945338 275.263548 667.439085 287.906261 661.082846 293.024384 645.637353 286.695191 632.94061 280.366001 620.243866 264.986234 615.103872 252.34352 621.460111 97.581613 699.268053 0 841.195691 0 998.290598Z"></path>
	</symbol>
	<symbol id="Nile" viewBox="0 0 1024 1024">
		<path fill="#7FC9C3" d="M512 0c282.8 0 512 229.2 512 512s-229.2 512-512 512S0 794.8 0 512 229.2 0 512 0z"/>
		<path fill="#8CCEC9" d="M110.3 524.3v10c0 25 2 30.7 5.5 45.7h.2c30.3 177.3 177 315 358.5 331.6l1.5.2 7.2.5 3.2.2 6.2.4h30.2c3 0 5.7 0 8.5-1h2.4l7.5-1 3.6-1 4.8-1c179.8-16 325.4-152 357-327 3.8-15 4-20 5.8-44h.4c0-2 0-3 .2-5v-2c2.5-30-1.4-79-11.6-117l-.5-2c-44-174-202-303-390-303-192 0-353 135-392 316-7 22-9 49-9 73a382.3 382.3 0 0 0 0 12v13z"/>
		<path fill="#98D3CE" d="M213 521.2v7.4c0 18.7 1.4 22.8 4 34h.2c22.5 132 131.7 234.5 267 247h1l5.4.5 2.4 1 4.5 1h43C674 797 782.5 696 806 566c2.7-11 3-15 4.2-33h.4v-5c2-22-1-59-8.4-87l-.4-2c-32.6-130-150-226-290-226-143 0-262.8 101-292 235-4.7 16-6 37-6.5 55a285.3 285.3 0 0 0 0 9v9z"/>
		<path fill="#A2D7D3" d="M325.2 517.7v4.6c0 11.8 1 14.3 2.6 21.3C342 626 410.2 690 494.8 697.8h.6c1 .2 2.2.2 3.3.3l1.5 1h27.4a199.3 199.3 0 0 0 2.4 0c83.6-7 151.2-71 166-152 1.7-7 2-9 2.7-20h.2v-4c1-14-1-37-6-54v-1c-20-81-94-141-181-141-90 0-164 63-182 147-3 10-4 23-4 34a183 183 0 0 0 0 6v6z"/>
		<path fill="#FFF" d="M540.6 89.4c144.6 0 262 117.3 262 262s-117.4 262-262 262-262-117.3-262-262 117.3-262 262-262z"/>
		<path fill="#F9F9F9" d="M373.2 290.2c40 0 72.3 32.3 72.3 72.3s-32.3 72.2-72.3 72.2-72.3-32.3-72.3-72.2c0-40 32-72.3 72-72.3z"/>
		<path fill="#4CB5AB" d="M980 719.7c-84.2-16.6-168.6-48-253.8-41.5-62.7 4.8-122.4 30-185 36C409.2 727 277.4 654 146.8 678c-35.5 6.5-71.7 20-107.6 30.7C116.2 893.7 299 1024 512 1024c208.8 0 388.4-125 468-304.3z"/>
		<path fill="#F9F9F9" d="M570.2 295.7c40 0 72.3 32.4 72.3 72.3 0 40-32.3 72.3-72.3 72.3S498 408 498 368s32.3-72.3 72.2-72.3z"/>
		<path fill="#00877A" d="M195.8 875.4s146 1.6 348.5-62.6c92.8-29.4 187.4-57 284.6-52.4 40 2 81 7.8 121 16C861 924.6 698 1024 512 1024c-119.4 0-229.2-40.8-316.2-109.3v-39.3z"/>
		<path fill="#26A599" d="M867.2 880.7c-65.2-3.6-232.5-17.6-391-68-92.8-29.3-187.4-57-284.6-52.3-39.8 2-79.3 7.5-118.6 15.3C162.6 924.5 325.7 1024 512 1024c138 0 263-54.6 355.2-143.3z"/>
		<path fill="#00786A" d="M835.4 909c-102-13-204.3-29.7-304-42.3-71.8-9-145-15.4-216.6-4.4-46.8 7.2-92 21.6-136.6 38 89.6 77 206.3 123.7 333.8 123.7 122.7 0 235.2-43 323.4-115z"/>
		<path fill="#006064" d="M653.3 723.8c-19.6-23.7-18.8-54.8-16-72.8l3-14.6c3-14 5.7-28 10-42 2.6-8.2-3.3-32-5-37.5-4.6-14-13.4-17-22.5-25-12.4-11-27.3-14-42.8-14-14.5 0-29.2-1-43.7-2-1.8 0-4-3-5-4-1.2-3-1.8-5-2-8-.3-3-.6-7 .8-8 5-4 9-8 14-9 7-2 13-3 18-9 6-8 6-17-3-19-9-3-12-11-18-15 0-1-1-3 0-4 2-4 1-7-3-10 3-1 5-1 6-2 5-2 10-4 14-7 7-6 12-12 17-19 4-6 8-12 15-14 2-1 4-3 6-5 9-11 18-23 27-34 2-2 2-4 3-6 4-10 2-19-3-28-1 2-1 4-1 7s1 7 0 10c-5 23-22 31-41 35-4 1-4-1-3-5 4-9 7-19 11-29 3-7 7-14 12-20 14-16 13-33 5.6-52-.5-1-.7-3-1-4-3 3-2.7 6-2.6 8 .5 6 1.5 13 1 20 0 6-2 12-8 15-3 2-5 2-6.4-2.7l-12-30c-1-2-2-3-3-5-2 2-2 3.3-2 5 0 7.5 1 15 1 22.5 0 4.7 0 9-5 11-1 0-1 2.7-1 4 1 6-3.6 10-9.6 8l-8-3c-16-8.3-26-23-40-34 0 2 1 4 2 5 11.5 15 23 29.5 38.4 40 5 3 9.5 6 15.5 5 6-.4 7 1 6.4 7-2 19.5-9 35.6-28 44-7 3-14 8.6-20 13.5-7 6-16 7-25 8-2 0-5-1.4-6-3-1-1 1-4 2-5 8-7 11-15.5 13-25 1-6 0-12-4-17-.5.6-.7 1.5-.5 2 3.4 13.8-7.5 29.8-19 34.7-5 2-9.7 2-14.6 0a40.2 40.2 0 0 0-10.4-2c-3 0-4-1-5-4-2-5-4-12.7-6.4-17.5-.7 0-2.3 1-2 4l3.3 11c1.6 4 1 6-3.6 6-18-1-36-5-51-16-1-1-3-2-3-3-4-9-8.6-18-7-28 0-2.4-1-5-1-7.3-1-2-2-1.6-3-2-1 8-1.6 17-2 24.6h-3c-12-12-21-26-19-44 .4-12 3-24 4.3-36 1-4 1.6-7 2-11l-2-.2-6.4 16c-2 5-4 11-6 16 0 1-3 3-4 2.3-9-3-16.5-8-17-19 0-5.4 1-9.4 0-15 0-3-2-4-3-4-.6 2.6-2 7.5-2 10 0 8.6 1 17 2 25 .4 5.4 1 16 2 21-15-7-14-25-22-34.4 0 7-1 13.4 1 19.3 4 12 11.5 22 22 29 2 1.3 3 3 5 5 2.3 3 4 6 7 8.4 7.3 7 15.4 13 23 20 23 22 49.4 35 81 39 9 1 10 2.3 8 11.3-2 9.3-3 19 2.5 27 1 1 1 3 .5 4.3l-7 24-6 21-9 41c-.3 2-.3 5 0 7 .6 10 1.7 19.8 2 29 1 14 1 28 1.6 42a177.7 177.7 0 0 0 2 22c1.5 10 4 20 12 27 7 7 11 16 10 27-1 6 1 12 3 18 2 9 6.2 18.7 8 28 1 14 1 27.7 2 41 0 5 1 9 1 14 .4 2 1 4.7 1 7v8.6c-.4 9-1.4 29-2 33.2 0 0-7 7-7 13h14s.4-6.3 4-12c0 0 1.3-28 4.3-43l.5-2.3c1-7 4-15 4-22 .4-17.4 0-35 0-53 0-3.5.4-7.3 1-11 0-4.5 3.3-17.4 21.2-19 7-1.3 15 3.6 16 10.6 1.8 11 2.6 23 3 35 0 5-1 11-1 17-1 7-4 14 0 21 5.7 10 2.4 22 3.6 34 0 9-1 28-2 32.5 0 0-6 7-6 13h12s1-6.2 4-12c0 0 1-19 3-34h1-1l1-9c1.5-6 3-15 2.8-28-.5-17 3.4-33 7.5-50 .3-1 1.5-2 2.2-3l3 2.7c4 6 7 11 11.3 16 10.4 12 27 26 29.6 42l2 8c0 27-5.5 54-5.5 54-7 6-13 14-13 14h18c2-10 5-9 5-9l7-28h.6v-2c6-27 12.8-64 8.8-78v-1a60.5 60.5 0 0 0 5.7 10c17 26 3 96.4 3 96.4-8 6-14 14-14 14h19c2-10 5-9 5-9s26-98.3 14-113zM593 377.4c-2 8.8-18.2 12.5-27 8.4l27-8.4zm-34.7 21.4l-28.8 9c2.6-8.3 20-13.8 28.8-9z"/>
		<path fill="#F9F9F9" d="M776 236.2a77.3 77.3 0 0 1-38.5 10.2c-43 0-77.7-34.8-77.7-77.7a77.3 77.3 0 0 1 13.2-43.3c44.3 26 80.2 64.5 103 110.8z"/>
		<path fill="#FFF" d="M187.8 200.6a8.5 8.5 0 1 1 0 17 8.5 8.5 0 0 1 0-17zm753.5 205.8a8.5 8.5 0 1 1 0 17 8.5 8.5 0 0 1 0-17zm-817.7-48.2a8.5 8.5 0 1 1 0 17 8.5 8.5 0 0 1 0-17zm740.2-167.5a8.5 8.5 0 1 1 0 17 8.5 8.5 0 0 1 0-17zm-17 155a8.5 8.5 0 1 1 0 17 8.5 8.5 0 0 1 0-17zM677 65.3a8.5 8.5 0 1 1 0 17 8.5 8.5 0 0 1 0-17zm-279-3.6a8.5 8.5 0 1 1 0 17 8.5 8.5 0 0 1 0-17zm-172 284a8.5 8.5 0 1 1 0 17 8.5 8.5 0 0 1 0-17z"/>
	</symbol>
	<symbol id="farm" viewBox="0 0 1024 1024">
		<path fill="#B1E9F1" d="M512 0c282.8 0 512 229.2 512 512s-229.2 512-512 512S0 794.8 0 512 229.2 0 512 0z"/>
		  <path fill="#FFF" d="M387 47.8c6.6 0 12.7 1.5 18 4.2a32.2 32.2 0 0 1 22.6-9.2c15.3 0 28 10.6 31.4 24.8A25.5 25.5 0 0 1 475.6 83l2.7-.2c14 0 25.5 11.4 25.5 25.5 0 14-11.4 25.5-25.5 25.5-4.3 0-8.5-1-12-3-3.2 10.5-13 18.3-24.6 18.3a25.4 25.4 0 0 1-18-7 25.4 25.4 0 0 1-18.2 8 25.4 25.4 0 0 1-17.5-7 25.4 25.4 0 0 1-18 8c-7 0-13.3-3-18-7a29.7 29.7 0 0 1-6.4 1c-17 0-30.4-13-30.4-30s13-31 30-31l2.6 1c2-20 19-35 39.5-35z"/>
		  <path fill="#AEAEAE" d="M65.8 261c26.4-2.6 115.3-7.8 219.8 21.3l10-61-48.2 46.6-13.2-14 69-67 13.4 13h9.6l13.3-14 49.5 48h.5l19 18-13.2 14-50.3-48 16 89c55 23 111.5 58 163 109C645.5 537 312 641 37.3 704 13.3 645 0 580 0 512c0-91.3 24-177 65.8-251zm259.6-90.2l69.2-66.7 13.2 14-69 67-13.4-14zm-9.6 0l-69-66.7-13.4 14 69 67 13.4-14z"/>
		  <path fill="#AEAEAE" d="M979.3 302.5h-26s-309 0-463.7 154.6c-117.4 118 300 191 507.7 219 17.3-51 26.7-106 26.7-163 0-74-16-145-44.7-209z"/>
		  <path fill="#9BCB64" d="M512 424.6c198.4 0 378 58 508 152C988 829 772.7 1024 512 1024S36 829 4 576.7c130-94 309.6-152 508-152z"/>
		  <path fill="#ADD37F" d="M512 534.4c187.8 0 358.6 52 486.6 137.3C931.6 876.3 739 1024 512 1024S92.5 876.3 25.4 671.7c128-85.2 298.8-137.3 486.6-137.3z"/>
		  <path fill="#9BCB64" d="M512 689c160.8 0 309.2 38.2 429 102.7C849.4 931.5 691.5 1024 512 1024S174.5 931.5 83 791.7C203 727.2 351.3 689 512 689z"/>
		  <path fill="#ADD37F" d="M512 811c129.8 0 251.5 25 356.5 68.4C776.3 969 650.5 1024 512 1024c-138.6 0-264.3-55-356.5-144.6C260.5 836 382.2 811 512 811z"/>
		  <path fill="#AEAEAE" d="M588.2 215.6L777.4 180l28.2 150-189.2 35.5-28.2-150zm50 26.4l102-19.2 15.3 80.8-102 19.2-15.2-80.8z"/>
		  <path fill="#AEAEAE" d="M599.4 216.7l168-31.6 55.4 6-71-88-85.4-19-82.6 50-24.2 106zm110.3 30l6 5.2-14.2 16 19.3 10-3.8 7-20.8-11-15.2 18-6-5 14-17-19.7-11 3.8-7 21 11z"/>
		  <path fill="#FFF" d="M674.6 127c12.4-2.3 24.3 5.8 26.6 18.2 2.3 12.4-5.8 24.3-18.2 26.6-12.4 2.4-24.3-5.8-26.6-18.2-2.3-12.3 5.8-24.3 18.2-26.6z"/>
		  <path fill="#4D4D4D" d="M310 462.4h-12.7V506H310z"/>
		  <path fill="#606060" d="M320 443h-32.6a5.2 5.2 0 0 0-5.2 5v19.3a5.2 5.2 0 0 0 5.2 5.2H320a5.2 5.2 0 0 0 5-5.2V448a5.2 5.2 0 0 0-5-5z"/>
		  <path fill="#666" d="M704 365H499l-85 231.7 187.6.3H789z"/>
		  <path fill="#64B3F5" d="M694 379l75 203.8-167.4.3H434l75-204z"/>
		  <path fill="#E1F1FB" d="M537 379h20.6l76.8 202h-20.6L537 379zm37 0h80l76.8 202h-80l-77-202z"/>
		  <path fill="#445A64" d="M652.8 455.8h-12.2c-3.4 0 .3 2.8-.2 6l-8.7 61.8h-61a6.2 6.2 0 0 0-6.2 6v4c0 3.3 2.8 6 6 6h6.3V576h50v-36H644a6 6 0 0 0 6.2-6v-12.4L659 462c.4-3.4-2.8-6.2-6.2-6.2zm-150.3 54.8l-26.2 13.2-.8 12.2 31-16 11.7 26.8a8.6 8.6 0 0 0 11.2 4.4A8.6 8.6 0 0 0 534 540l-30-68.6a8.6 8.6 0 0 0-11-4.4 8.6 8.6 0 0 0-4.6 11.2l14 32.4z"/>
		  <path fill="#36464E" d="M652.8 455.8h-12.2c-3.4 0 .3 2.8-.2 6l-8.7 61.8H629l6 16h9a6 6 0 0 0 6.2-6v-12.3L659 462c.4-3.4-2.8-6.2-6.2-6.2zm-40.2 67.8H592l20 52.5h15v-14l-14.4-38z"/>
		  <path fill="#FF0" d="M722.7 347h-247c-3.2 0-7.2 3-5.8 5.8l10 21c1 2.7 2 5.6 5 5.6h227c3 0 4-2.8 5-5.7l9-21c1-2.7-3-5.6-6-5.6z"/>
		  <path fill="#445A64" d="M616.2 576h-381c-25.2 0-12 20-12 45v43c0 1.8 0 3.5.2 5.2h-61.2v27h74.2c8.3 8.3 19.7 13.4 32.3 13.4h547l-63.7-173-97.3 1-38.5 38.5z"/>
		  <path fill="#36464E" d="M177.8 700h58.6c8.3 6 19.7 9.6 32.3 9.6h547l-11-21.3h-627V700zm-6-53h-28.2a6 6 0 0 0-6 6v59.3a6 6 0 0 0 6 6h28a6 6 0 0 0 6.2-6v-59a6 6 0 0 0-6-6.2z"/>
		  <path fill="#FF0" d="M452.8 481.8l-209.8 17c-40.7 3.4-53.8 43.8-53.8 88.7v19c0 45-2.3 57.7 38.5 57.7h175c41 0 74.3-36.8 74.3-81.7v-19c0-45 16.5-85-24.2-81.7z"/>
		  <path fill="#FFD500" d="M190 570c-.6 5.7-.8 11.6-.8 17.5v19c0 45-2.3 57.7 38.6 57.7h175c40.8 0 74.2-36.8 74.2-81.7v-19c0-22 4-43 3.2-58L249.4 521c-33.6 2.3-51.6 22.2-59.5 49z"/>
		  <path fill="#424242" d="M429 357.6v240.2c0 6 5 11.2 11 11.2s11.3-5 11.3-11.2V341c0-20.8-22.7-33.3-34.5-29.8V334c7.2-1.3 12 3.8 12 7.7v16z"/>
		  <path fill="#202020" d="M703.6 568.7a129 129 0 0 0-12.5 1.6l-3-7c-1-2.3-3-4-5-3.3l-6 1.8c-2 .6-3 3-3 5.3l1 8a124.5 124.5 0 0 0-12 5l-5-6c-1-2-4-3-6-1l-6 3c-2 1-2 4-1 6l2 8a128.2 128.2 0 0 0-10 8l-7-5c-2-1-4-1-6 0l-5 5c-2 2-1 4 0 7l4 7a127.6 127.6 0 0 0-8 10l-8-2c-2-1-5-1-6 1l-3 6c-1 2 0 5 2 6l6 6a125 125 0 0 0-5 11h-8c-2 0-4 1-5 3l-3 7c-1 3 1 5 3 6l7 4a124.7 124.7 0 0 0-2 13l-8 2c-2.3 1-4.4 2-4.6 4v7c0 3 2 4 4 5l8 3c0 4 0 8.7 1 12.8l-7 3c-2 1-4 3-3 5.8l1 7c0 2 2.3 3 5 3h8a123 123 0 0 0 4 12l-7 5c-2 1.6-3 3.7-2 6l3 6c1 2.6 3.5 3 6 2l8-1.3a127.8 127.8 0 0 0 6 10l-5 6c-1.2 2-2 4-.3 6l4.8 5c1 2 4 2 6 1l7-4a127.3 127.3 0 0 0 9 8l-3 7.4c-1 2-1 4.4 1 6l5.7 4c2 1.4 4.6.6 6-1l6-5.4a125.3 125.3 0 0 0 11 6l-1 7c-.6 2.3 0 5 2.3 6l6.8 2.3c2 1 4.6 0 6-2l4.4-7a127.4 127.4 0 0 0 12 3.8l1 8c0 2.8 1.3 5 4 5l7 1c2.2.7 4-1 5-4l2.4-7h6.2a123.4 123.4 0 0 0 6.2 0l3 7.7c1 2 3 4 5 4l7-1c3 0 4-3 4-5l1-8a128.5 128.5 0 0 0 12-4l4 6.5c1.7 2 4 3.8 6 3l6.7-2c2-1 2.8-3 2.4-5.4l-1-8a125.8 125.8 0 0 0 11-6l6 6c2 2 4 3 6 1l6-4c2-1 2-4 1-6l-3-8a125.6 125.6 0 0 0 9-9l7 4c2 1 4.2 2 6 0l4.3-5.2c2-1.2 1-4 0-6l-5-6a129.8 129.8 0 0 0 7-11l8 2c2 1 4.7 0 5.7-2l3-6c1-2 0-4-2-6l-7-5a129 129 0 0 0 4-12h8c2 0 4.2-1 5-3.5l1-7c.5-2-1-4-3.4-5l-8-3c1-4 1-8.5 1-13l8-2c2.4-.5 4.4-2 4-4.5l-.2-7c0-2.6-2-4-4.3-4l-8-1.5a130 130 0 0 0-2-13l7-4c2-1.5 4-3.5 3-6l-2-7c-1-2-3-3-6-3l-8 1a125.3 125.3 0 0 0-5-11l6-5.4c2-2 3-4 1.7-6l-4-6c-1-2-4-2-6-1l-8 2a129 129 0 0 0-8-10l4-7c1.3-2 1.6-4 0-6l-5-5c-2-1-4-1-6 1l-7 5a124.5 124.5 0 0 0-10-7.6l2-7c1-2.6.2-5-2-6l-6-3.7c-2.3-1-4.5 0-6 2l-5.4 6a128.5 128.5 0 0 0-12-5v-8c0-2-.4-4-3-5l-7-1.5c-2-1-4 1-5 3l-4 7a130.3 130.3 0 0 0-13-2l-2-8c0-2.2-2-4.2-4-4.2h-7c-2 0-4 2-4 4l-3 7z"/>
		  <path fill="#FFD500" d="M709.6 624.6c-38 0-69 30.8-69 69 0 38 31 68.8 69 68.8s69-31 69-69-31-68.8-69-68.8z"/>
		  <path fill="#202020" d="M337.6 625c-3.3.4-6.6.8-10 1.4l-2.7-5.6c-1-1.7-3-3-5-2.5l-6 1.4c-2 .4-3 2.3-3 4.2v6a97.7 97.7 0 0 0-10 3l-4-5c-2-2-3-2-5-1l-5 2c-2 1-2 3-1 4l1 6a98.5 98.5 0 0 0-8 6l-5-4c-2-1-4-2-5 0l-4 3c-2 1-1 3 0 5l3 5a100.5 100.5 0 0 0-6 7l-6-3c-2-1-4-.8-5 1l-3 5c-1 2 0 3.2 1 5l4 4a99.5 99.5 0 0 0-5 9l-7-1c-2 0-4 0-5 2l-1.5 6c-1 1.5 0 3 2 4l5.2 3a99.3 99.3 0 0 0-2 10l-6 1c-2 1-4 2-4 4l-1 6c0 2 1.2 3 3 3.6l6 2c0 3.6 0 7 .7 10l-5 2c-2 1-3 3-3 4l1 6c.6 2 2 3 4 3l6.7.5a101.2 101.2 0 0 0 3 9.8l-5 4c-1.3 1-2.2 3-1.4 5l2 5c1 1 3 2 4.2 1l6-1a102 102 0 0 0 5.2 8l-4 5c-1 1.3-1 3.2 0 5l4 4c1 1.4 3 1.3 5 .4l5.2-3a105 105 0 0 0 7.5 7l-2 5.3c-1 2-1 4 .6 5l5 3c1.6 1 3.4 1 5-.4l4.6-4.3a97.8 97.8 0 0 0 8 5l-1 7c0 2 0 4 2 4.4l5 2c2 .5 3.3-.5 4.4-2l4-5 10 2 .8 6.3c0 2 1 3 3 4h5.4c2 0 3-1.4 4-3l2.5-6h10l2 6c1 1.5 2 3 4 3l5.4-1c2 0 3-2 3-4v-6a95.2 95.2 0 0 0 10-2.7l4 5c1 2 2.4 3 4 2l5.3-2c1.7-1 2-3 2-4.6l-1-6a102.4 102.4 0 0 0 8.6-5l4 4.7c1 1.4 3 2 4.2 1l4.3-3.3c1-1 1-3 1-5l-3-5a103.2 103.2 0 0 0 7-7l6 3c1 1 3 1 5-1l3-4c1-2 1-3.6 0-5l-4-5a101.2 101.2 0 0 0 5-9l6 1c2 0 4 0 4-2l2.5-5c1-1.3 0-3-1.4-4.2l-5-4a101.7 101.7 0 0 0 3-9h6.3c2 0 3-1 4-2l1-5c0-2-1-3.6-3-4l-6-2c1-3 1-7 1-10l6-2c2-.4 3.4-2 3.3-3.5l-1-6c0-2-1.7-3-3.6-3l-6-1a102.3 102.3 0 0 0-2-10l5.3-3c1.5-1 3-2 2-4l-1.4-5c-.6-2-2.5-3-4-3l-6.8 1a102 102 0 0 0-4-9l4-4.6c1.3-1.4 2-3 1-5l-3-5c-1-1.4-3-1.5-4.6-1l-6 2a98.3 98.3 0 0 0-6-7.4l3-5.6c1-1.4 1-3.4 0-5l-4-3.5c-2-1.7-4-1-5 0l-5 3.3a101.6 101.6 0 0 0-8-6l1-6c1-2 1-4-1-5l-5-3c-1-1-3 0-4.4 2l-4 5a97.4 97.4 0 0 0-9.4-4v-6c0-2-.5-4-2.4-4l-6-1.7c-2-.6-3.6 1-4.4 2.4l-3 6a103.3 103.3 0 0 0-10-1l-1.5-6c0-2-1.4-3.5-3-3.5h-6c-2 0-3 2-4 4l-2 6z"/>
		  <path fill="#FFD500" d="M342.3 669c-30 0-54.2 24.4-54.2 54.4s25 54.2 55 54.2 54-24.3 54-54.2c0-30-24-54.3-54-54.3z"/>
		  <path fill="#FF0" d="M781 529.7H652L556.2 626l14.3 6 84.7-83.3 121-1.3 73.8 66.3s9.7-9.6 9-11c-.5-1.5-78-73-78-73z"/>
		  <path fill="#FFED58" d="M514.5 43.3c29 0 52.4 23.4 52.4 52.3S543 148 514 148s-52-23.5-52-52.4 23.5-52.3 52.4-52.3z"/>
		  <path d="M487.4 201s8.4-1.7 15.4-.4c7 1.4 14.2 7.2 22 7.6 8 .5 6.4-2.5 6.4-2.5s-5 .7-6.4-3.6c-1.3-4 4-7 12.6-13 8.5-6 10-12 8.5-15 0 0-2 3-9 6s-12 11-18 16-6 5-11 4c-6-1-17-2-22 3z"/>
	</symbol>
</svg>
